<svg xmlns="http://www.w3.org/2000/svg" xml:space="preserve" style="enable-background:new 0 0 2834.6 413" viewBox="0 0 2834.6 413"><path d="m229.4 391.7 7.5-3.3 2.7-1.3 4.1-2 4.3-2.3 2-1.2c24.6-13.9 46.2-33 63.1-55.7a193.7 193.7 0 0 0 36.9-92.4 169 169 0 0 0-16-96.3 118.5 118.5 0 0 0-48.5-50.4 104 104 0 0 0-38-11.3 77.2 77.2 0 0 0-66.6 22.8 72 72 0 0 0-17.3 33l-.1.4-.3 1.3-.3 1.3-.3 1.3-.2 1.3-.2 1.3-.3 1.9-.4 3.5-.2 3.6v1.3a60.2 60.2 0 1 1 115 27.7l-.5 1.4a138.5 138.5 0 0 1-76.5 78.7 108 108 0 0 1-37.4 7.2l-6.9-.2-3.1-.2-5.2-.5-4-.6-4.6-.8-2.6-.5c-2.4-.5-4.7-1-7.1-1.7l-.9-.3a172 172 0 0 1-86.2-57.3l-1.4-1.7-2.1-2.7-2-2.7-1.5-2.1-1.8-2.6-1.9-2.9-1.2-1.9-2.6-4.3-.6-1-.1-.1-1.1-2-2.1-3.9-1.5-3.1-.4-.8-1.8-4.4-.1-.3c.8 112.7 132.1 218.8 202.5 230l6.7-2.6 1.1-.6z" style="fill:#009659"/><path d="m21.5 169.3.4.8 1.5 3.1 2.1 3.9 1.1 2 .1.1.6 1 2.6 4.3 1.2 1.9 1.9 2.9 1.8 2.6 1.5 2.1 2 2.7 2.1 2.7 1.4 1.7a172.7 172.7 0 0 0 86.2 57.3l.9.3 7.1 1.7 2.6.5 4.6.8 3.9.5 5.2.5 3.1.2 6.9.2c12.9-.1 25.5-2.6 37.4-7.2a138.5 138.5 0 0 0 76.5-78.7l.5-1.4a60.3 60.3 0 0 1-106.9 5.2l-.7-1.2a59.7 59.7 0 0 1-7.5-29.1v-5.6l.2-3.8.2-3.4a135.5 135.5 0 0 1 22.4-60 146 146 0 0 1 37.9-38.4 122.5 122.5 0 0 0-69.4-21.3c-20.5 0-39.2 4.2-55.7 11.9l-.5.2-2.2 1c-2.8 1.4-5.5 2.8-8.1 4.4l-3.9 2.4-.5.4-.1.1a127.1 127.1 0 0 0-36.6 36.1 146 146 0 0 0-11.5 20.5c-2.3 5.1-4.4 10.4-6.2 15.8l-.1.3-.2.6-.2.8-.1.3-.7 2.4-.4 1.4c-.8 2.7-1.5 5.5-2.1 8.3l-.9 4-.2 1.2-.7 3.7-.1.5-.2 1.1c-1.5 9.1-2.2 18.5-2.2 28.2v1l.1.3 1.9 4.2" style="fill:#00d163"/><path d="M291.5 18.4a123.5 123.5 0 0 0-82 31.2 146 146 0 0 0-25.3 28.5 135.5 135.5 0 0 0-22.4 60l-.2 3.4-.2 3.8v5.6c0 10.6 2.7 20.5 7.5 29.1l.7 1.2a60.2 60.2 0 1 0-8.1-32.9V147l.2-3.6.4-3.5.3-1.9.2-1.3.2-1.3.3-1.3.3-1.3.3-1.3.1-.4a72.5 72.5 0 0 1 17.3-33 76.6 76.6 0 0 1 66.6-22.8 106 106 0 0 1 38 11.3c20.9 11 37.7 29.6 48.5 50.4a169 169 0 0 1 16 96.3c-3.8 33.3-17 65.5-36.9 92.4a203 203 0 0 1-63.1 55.7l-2 1.2a90 90 0 0 1-8.3 4.3l-2.7 1.3-7.5 3.3-.6.3-6.7 2.6.7-.1.5-.1.3-.1.3-.1 1-.2h.2l1.2-.2.2-.1 1.1-.2h.2l1.2-.3h.2l.2-.1.4-.1.7-.2h.1l1.2-.3h.3l1.2-.3h.1l.2-.1 1.2-.3h.1l1.3-.4.3-.1.6-.2.6-.2.2-.1h.2l.2-.1.4-.1.5-.2h.2l1.3-.4.5-.2 1.1-.4.3-.1 1-.4.2-.1h.1l1.1-.4.5-.2.7-.3 1.7-.6.4-.2.2-.1.6-.2.9-.3.1-.1 1.3-.5.3-.1.1-.1 1.3-.5h.2l1-.4.4-.2.4-.2 1.2-.5.1-.1 1.4-.6.1-.1 3.7-1.7.2-.1.9-.4h.1l3.8-1.9.9-.5.7-.3.6-.3.8-.4.6-.3 1-.5 1.2-.6h.1l.1-.1.1-.1.2-.1 6.6-3.7.3-.2 4.3-2.6.3-.2.1-.1.3-.2 2.3-1.4.6-.4.1-.1.5-.3.2-.2 4.4-2.8.3-.2 1.1-.7 6.8-4.6h.1l3.6-2.5.1-.1.1-.1 3.2-2.3h.1l.2-.1a385.4 385.4 0 0 0 29.5-24.4l.2-.2c47-43.4 86.1-103 86.1-164.6.1-80.2-52.9-145.2-133.1-145.2m1527.1 19.7h-94.8l-109.2 257.7-104.5-257.7h-104.9V40c36.9 16.3 39.8 33.5 35.9 89.6l-9.6 131.2c-5.3 74.7-9.6 92.9-46.5 105.9v1.9h104v-1.9c-41.2-12.9-40.2-36.9-35.4-106.3l11-176.3 114.5 284.5h25.4l118.3-278.3 12 189.7c3.8 57.5 4.3 73.8-34 86.7v1.9h135.1v-1.9c-33-12.5-36.4-23-41.2-90.5l-11-164.8c-3.3-41.2.5-56 35-71.4v-1.9zm-1147.7 0h-159V40c32.1 11 38.3 23 38.3 63.2v199.3c0 40.2-6.2 53.2-38.3 64.2v1.9h154.2c110.2 0 187.3-63.2 187.3-173.4 0-104.9-83.3-157.1-182.5-157.1M611 353.8V53h57.5c66.6 0 118.8 59.9 118.8 146.1 0 90-44.6 154.7-124.5 154.7H611zm1346.9-235.2c-68 0-126 52.2-126 127.4 0 72.3 55.6 128.4 126 128.4 69.9 0 126-56 126-128.4 0-75.2-58.4-127.4-126-127.4m0 243.8c-46.9 0-62.7-58.9-62.7-116.4 0-63.7 20.6-115.4 62.7-115.4 41.7 0 62.3 51.7 62.3 115.4 0 57.5-15.8 116.4-62.3 116.4m-671-243.8c-65.6 0-122.1 49.3-122.1 129.3 0 78.5 47.4 126.4 110.2 126.4 51.2 0 80.5-35.4 92.4-56.5v-4.3a103.3 103.3 0 0 1-61.3 22c-46 0-83.3-36.9-83.3-103 0-58 33.1-98.7 82.9-98.7 9.6 0 18.7 1 28.7 3.3-8.2-9.9-23.6-18.5-47.5-18.5m-277.8 0c-68 0-126 52.2-126 127.4 0 72.3 55.6 128.4 126 128.4 69.9 0 126-56 126-128.4a125 125 0 0 0-126-127.4m0 243.8c-46.9 0-62.7-58.9-62.7-116.4 0-63.7 20.6-115.4 62.7-115.4 41.7 0 62.3 51.7 62.3 115.4 0 57.5-15.8 116.4-62.3 116.4m327.1-215.1a32.4 32.4 0 1 0 0 64.7 32.4 32.4 0 1 0 0-64.7m904.3-28.7a32.6 32.6 0 0 0-33.1 33.5 32.3 32.3 0 0 0 33.1 33.5 33 33 0 0 0 33.5-33.5 33.2 33.2 0 0 0-33.5-33.5m-54.1 0h-1.9c-25.4 8.6-59.4 19.2-92.4 21.6v1.9c31.6 11 36.4 20.1 36.4 62.3v102c0 38.3-4.8 49.8-31.1 60.3v1.9h127.4v-1.9c-32.6-10.5-38.3-22-38.3-60.3V118.6zm545.9 0c-46 0-86.7 29.2-86.7 72.8 0 84.8 126 72.3 126 130.3 0 23.5-20.6 39.8-45 39.8-28.3 0-56-25.9-80.5-73.8h-1.9l1.4 70.4a183 183 0 0 0 76.2 16.3c52.2 0 93.4-30.7 93.4-76.2 0-86.2-129.3-76.2-129.3-131.2 0-21.1 18.7-35.9 40.2-35.9 24 0 46.5 20.6 69.5 62.3h2.4v-61.8c-19.7-7.7-44.6-13-65.7-13m-291.8 0a32.6 32.6 0 0 0-33.1 33.5 32.3 32.3 0 0 0 33.1 33.5 33 33 0 0 0 33.5-33.5 33.3 33.3 0 0 0-33.5-33.5m-54.2 0h-1.9c-25.4 8.6-59.4 19.2-92.4 21.6v1.9c31.6 11 36.4 20.1 36.4 62.3v102c0 38.3-4.8 49.8-31.1 60.3v1.9h127.4v-1.9c-32.6-10.5-38.3-22-38.3-60.3V118.6zM2555 22.3a33 33 0 0 0-33.5 33.5 32.7 32.7 0 0 0 33.5 33.5 33 33 0 0 0 33.5-33.5 33.3 33.3 0 0 0-33.5-33.5m31.6 96.3h-1.9a438.1 438.1 0 0 1-92.4 20.1v1.9c30.2 10.5 36.4 18.7 36.4 60.8v105.9c0 37.4-4.8 48.9-31.1 59.4v1.9h120.2v-1.9c-25.9-10.5-31.1-22-31.1-59.4V118.6z" style="fill:#00453d"/></svg>