<svg xmlns="http://www.w3.org/2000/svg" viewBox="0 0 2795.65 743.83"><defs><style>.a{fill:#009659;}.b{fill:#00d163;}.c{fill:#00453d;}.d{fill:#00d264;}</style></defs><path class="a" d="M229.39,387.39c2.48-1,5-2.19,7.5-3.34.91-.43,1.81-.88,2.73-1.33,1.36-.67,2.71-1.33,4.06-2s2.89-1.53,4.31-2.32c.7-.38,1.38-.77,2-1.15a203.47,203.47,0,0,0,63.08-55.68c19.89-26.86,33.1-59.11,36.91-92.37,3.73-32.59-.79-67.09-16-96.3-10.81-20.85-27.61-39.46-48.53-50.4a104.62,104.62,0,0,0-38-11.34C223.36,68.4,199,74.81,181,94c-8,8.51-14.05,19.56-17.27,33l-.09.43-.3,1.27-.27,1.28-.27,1.28-.23,1.25-.2,1.28c-.11.65-.22,1.29-.29,1.92-.16,1.19-.29,2.34-.39,3.52s-.13,2.39-.18,3.6c0,.54,0,1,0,1.27a60.26,60.26,0,1,1,115,27.71l-.47,1.35c-12,32.86-41.05,65.06-76.5,78.68a106,106,0,0,1-37.35,7.18c-2.3,0-4.62-.09-6.92-.21-1-.06-2.05-.11-3.09-.22-1.73-.13-3.47-.32-5.21-.52-1.33-.16-2.64-.36-4-.56-1.51-.23-3-.48-4.54-.77-.88-.14-1.76-.32-2.64-.5-2.37-.51-4.75-1.05-7.1-1.67l-.95-.27c-33.13-9-64.4-30.35-86.23-57.3-.46-.56-.9-1.13-1.35-1.71-.71-.91-1.41-1.81-2.1-2.73s-1.33-1.76-2-2.68c-.52-.7-1-1.42-1.52-2.13-.61-.87-1.21-1.75-1.8-2.61s-1.28-2-1.89-2.93c-.39-.65-.8-1.26-1.2-1.88-.88-1.44-1.72-2.88-2.55-4.34l-.56-1-.09-.1c-.36-.67-.7-1.35-1.08-2q-1-2-2-3.93c-.53-1-1-2.08-1.53-3.14l-.36-.76c-.65-1.44-1.22-2.93-1.82-4.37l-.14-.28c.81,112.74,132.13,218.8,202.55,230h0c2.23-.86,4.48-1.71,6.69-2.62Z" transform="translate(-19.5 -14.05)"/><path class="b" d="M21.46,165l.35.75c.51,1.06,1,2.11,1.53,3.15.67,1.31,1.35,2.64,2.07,3.93.36.67.7,1.35,1.06,2l.09.1.56,1c.84,1.46,1.67,2.9,2.55,4.33.39.63.8,1.24,1.2,1.89.63,1,1.24,2,1.89,2.93s1.18,1.74,1.79,2.6,1,1.44,1.53,2.16c.63.9,1.29,1.78,2,2.66s1.38,1.83,2.1,2.73c.45.58.9,1.17,1.37,1.72,21.83,26.94,53.07,48.25,86.2,57.28l1,.27c2.35.63,4.74,1.17,7.09,1.68l2.64.5c1.51.29,3,.54,4.55.77,1.31.2,2.64.4,4,.54,1.75.23,3.49.41,5.23.56,1,.07,2.05.14,3.07.19,2.3.13,4.62.24,6.92.22a105.84,105.84,0,0,0,37.37-7.17c35.44-13.64,64.54-45.83,76.49-78.7l.47-1.34a60.28,60.28,0,0,1-106.85,5.21l-.7-1.24a59.93,59.93,0,0,1-7.5-29.13c0-.7,0-1.42,0-2.12,0-.54,0-2.44,0-3.48,0-1.21.12-2.59.18-3.79s.1-2.2.21-3.38a126.07,126.07,0,0,1,5.46-25.41,136.4,136.4,0,0,1,16.91-34.64,146.86,146.86,0,0,1,25.3-28.48c4.56-4,8.88-7.27,12.56-9.88h0a122.78,122.78,0,0,0-69.39-21.33A131.38,131.38,0,0,0,97,26l-.47.21-2.15,1C91.6,28.56,88.9,30,86.28,31.56l0,0c-1.31.77-2.61,1.56-3.88,2.37l-.31.22-.11.05A128.3,128.3,0,0,0,45.39,70.3v0a140.83,140.83,0,0,0-11.52,20.5v0a150.61,150.61,0,0,0-6.18,15.83l-.09.27-.2.61-.25.77-.09.27c-.25.81-.48,1.62-.74,2.43l-.39,1.38c-.79,2.75-1.51,5.51-2.16,8.34-.28,1.33-.57,2.65-.86,4l-.21,1.15c-.26,1.23-.49,2.45-.69,3.69l-.07.45-.2,1.13a174.3,174.3,0,0,0-2.24,28.15v1.05l.13.28c.59,1.44,1.17,2.93,1.82,4.37" transform="translate(-19.5 -14.05)"/><path class="c" d="M291.46,14.05a123,123,0,0,0-69.39,21.33c-3.69,2.61-8,5.93-12.56,9.9a147.23,147.23,0,0,0-25.28,28.46,136.07,136.07,0,0,0-16.91,34.64,124.71,124.71,0,0,0-5.46,25.41c-.13,1.18-.18,2.21-.23,3.39s-.15,2.59-.18,3.78c0,1,0,3,0,3.48,0,.7,0,1.42,0,2.14a60,60,0,0,0,7.49,29.13l.7,1.24A60.29,60.29,0,1,0,161.45,144c0-.29,0-.72.05-1.27.05-1.19.09-2.39.18-3.6s.23-2.33.39-3.5c.08-.65.17-1.29.29-1.92l.2-1.28.23-1.27.27-1.28.27-1.26.29-1.29.11-.41c3.2-13.39,9.25-24.44,17.26-33,18-19.17,42.37-25.56,66.56-22.83a104.42,104.42,0,0,1,38,11.32c20.93,11,37.71,29.55,48.55,50.39,15.18,29.24,19.71,63.72,16,96.31-3.81,33.27-17,65.53-36.9,92.37A203.59,203.59,0,0,1,250,377.21c-.68.4-1.36.77-2,1.15-1.45.79-2.89,1.56-4.35,2.32s-2.67,1.36-4,2.05c-.91.45-1.83.88-2.73,1.33-2.51,1.13-5,2.3-7.49,3.34l-.63.27c-2.21.91-4.46,1.78-6.68,2.62l.71-.11.53-.09.34,0,.3-.06,1-.19.25,0,1.21-.23.21-.06,1.12-.25.16,0,1.24-.27.21-.06.24-.05.39-.09.68-.16.11,0,1.21-.3.07,0,.07,0,.09,0,1.15-.28.12,0,.24-.07,1.22-.34.09,0,1.29-.38.29-.07.56-.16.57-.18.16-.05.06,0,.07,0,.07,0,.25-.06.4-.14.56-.18.16,0,0,0h0l1.31-.43,0,0,.52-.16,1.06-.37,0,0,.33-.11,1-.36h0l.16-.05.09,0,1.06-.38.52-.19.67-.26c.57-.19,1.15-.41,1.72-.64l.4-.16.23-.08.6-.25.86-.34.14,0,1.3-.52.27-.11.1-.06,1.26-.52.09,0,.07,0,1-.43.44-.2h0l0,0h0l.36-.16,1.22-.54.14-.05,1.4-.63.15-.07c1.2-.54,2.44-1.11,3.66-1.69l.2-.09.92-.45.07,0h0c1.26-.63,2.54-1.24,3.81-1.89l.9-.47.67-.34.63-.31.77-.41.61-.32,1-.54,1.22-.65,0,0,.15-.07.07-.05.18-.09q3.25-1.76,6.56-3.67h0l.29-.17c1.44-.82,2.89-1.69,4.33-2.57l.27-.14.09-.07,0,0,.29-.16c.77-.45,1.52-.94,2.29-1.4l.62-.4.09,0,.53-.34.24-.15c1.49-.93,3-1.89,4.44-2.86h.05l.29-.18,1.06-.7.05,0h0c2.26-1.51,4.55-3.05,6.83-4.65l0,0v0c1.2-.83,2.39-1.67,3.59-2.53l.08-.06.14-.09c1-.75,2.1-1.52,3.14-2.3l.06,0,.2-.15c3.27-2.4,6.5-4.88,9.73-7.45l0,0h0c6.68-5.32,13.3-11,19.76-16.93l.24-.21,0,0c47-43.41,86.07-103.06,86.07-164.62,0-80.2-53-145.23-133.21-145.23" transform="translate(-19.5 -14.05)"/><path class="c" d="M1818.57,33.8h-94.85L1614.51,291.48,1510.09,33.8h-104.9v1.9c36.89,16.3,39.76,33.53,35.92,89.58l-9.56,131.24c-5.28,74.72-9.59,92.93-46.46,105.84v1.93H1489v-1.93c-41.2-12.91-40.25-36.87-35.45-106.33l11-176.26,114.47,284.52h25.39L1722.76,86l12,189.66c3.83,57.5,4.29,73.78-34,86.69v1.93h135.07v-1.93c-33.06-12.45-36.41-23-41.19-90.52l-11-164.76c-3.36-41.2.47-56,35-71.38Zm-1147.65,0h-159v1.9c32.09,11,38.33,23,38.33,63.23V298.18c0,40.25-6.24,53.19-38.33,64.18v1.93H666.14c110.16,0,187.28-63.23,187.28-173.39,0-104.89-83.34-157.1-182.5-157.1M611.05,349.45V48.64h57.48c66.59,0,118.78,59.88,118.78,146.09,0,90-44.54,154.72-124.53,154.72Zm1346.89-235.2c-68,0-126,52.22-126,127.43,0,72.32,55.55,128.36,126,128.36,70,0,126-56,126-128.36,0-75.21-58.45-127.43-126-127.43m0,243.82c-46.93,0-62.74-58.92-62.74-116.39,0-63.71,20.61-115.44,62.74-115.44,41.68,0,62.27,51.73,62.27,115.44,0,57.47-15.81,116.39-62.27,116.39m-671-243.82c-65.62,0-122.15,49.34-122.15,129.33,0,78.55,47.42,126.46,110.16,126.46,51.26,0,80.48-35.45,92.46-56.53v-4.29c-12.94,10-35.45,22-61.32,22-46,0-83.33-36.88-83.33-103,0-58,33-98.66,82.86-98.66a120.66,120.66,0,0,1,28.73,3.34c-8.14-10-23.46-18.69-47.41-18.69m-277.82,0c-68,0-126,52.22-126,127.43,0,72.32,55.57,128.36,126,128.36,69.95,0,126-56,126-128.36,0-75.21-58.45-127.43-126-127.43m0,243.82c-46.93,0-62.74-58.92-62.74-116.39,0-63.71,20.59-115.44,62.74-115.44,41.69,0,62.28,51.73,62.28,115.44,0,57.47-15.81,116.39-62.28,116.39M1336.23,143a32.34,32.34,0,1,0,32.58,32.09A32.2,32.2,0,0,0,1336.23,143" transform="translate(-19.5 -14.05)"/><path class="c" d="M2240.54,114.26c-19.16,0-33.05,14.84-33.05,33.53,0,19.15,13.89,33.53,33.05,33.53a33.53,33.53,0,0,0,0-67.06m-54.12,0h-1.92c-25.39,8.63-59.39,19.16-92.45,21.56v1.91c31.63,11,36.41,20.12,36.41,62.27V302c0,38.32-4.78,49.82-31.12,60.35v1.93h127.4v-1.93c-32.57-10.53-38.32-22-38.32-60.35Z" transform="translate(-19.5 -14.05)"/><path class="c" d="M2732.28,114.27c-46,0-86.69,29.21-86.69,72.8,0,84.77,126,72.32,126,130.28,0,23.47-20.59,39.76-45,39.76-28.26,0-56-25.87-80.47-73.77h-1.91l1.44,70.41c21.08,10.06,48.85,16.3,76.16,16.3,52.2,0,93.4-30.67,93.4-76.17,0-86.22-129.33-76.16-129.33-131.23,0-21.07,18.69-35.93,40.23-35.93,24,0,46.46,20.59,69.46,62.27h2.39V127.2c-19.64-7.67-44.54-12.93-65.62-12.93" transform="translate(-19.5 -14.05)"/><path class="c" d="M2440.45,114.26c-19.15,0-33,14.84-33,33.53,0,19.15,13.89,33.53,33,33.53a33.53,33.53,0,1,0,0-67.06m-54.11,0h-1.93C2359,122.89,2325,133.42,2292,135.82v1.91c31.62,11,36.4,20.12,36.4,62.27V302c0,38.32-4.78,49.82-31.12,60.35v1.93h127.41v-1.93c-32.58-10.53-38.32-22-38.32-60.35Z" transform="translate(-19.5 -14.05)"/><path class="c" d="M2555,18c-19.17,0-33.52,14.86-33.52,33.54,0,19.16,14.35,33.53,33.52,33.53a33,33,0,0,0,33.53-33.53A33.34,33.34,0,0,0,2555,18m31.61,96.29h-1.93c-24.9,8.13-59.38,17.24-92.44,20.1v1.92c30.19,10.55,36.42,18.69,36.42,60.84V303c0,37.37-4.79,48.87-31.14,59.4v1.92h120.22v-1.92c-25.85-10.53-31.13-22-31.13-59.4Z" transform="translate(-19.5 -14.05)"/><path class="d" d="M1950.67,511.93c20.33,0,30.32,15.16,30.32,60.28l-68.55,5.17c1.37-38.57,13.08-65.45,38.23-65.45m69.93,127.46c-10.33,9-30,19-52,19-33.76,0-55.81-25.15-56.49-72v-2.41h106.78V570.5c0-48.58-28.93-67.52-65.46-67.52-44.77,0-83.35,39.26-83.35,96.45,0,52.36,31.68,87.5,78.54,87.5,41,0,63.39-29.29,72.68-45.47Zm-238.73-65.46,26.2-25.49c24.79-23.75,44.09-35.13,62.69-39.6v-1.73h-95.43v2.41c30.67,8.61,31,23.43,5.18,49.27l-33.08,33.06,37.21,54.08c24.79,35.83,25.13,36.87,57.87,36.87h36.17v-1.39c-12.4-3.79-23.43-9.3-44.43-37.55Zm-42.71-146h-1.38a279.41,279.41,0,0,1-67.86,15.5v1.39c22.4,6.88,26.53,13.08,26.53,43.39V638.71c0,26.86-3.79,35.12-22.74,42.7v1.39h88.18v-1.39c-18.94-7.58-22.73-15.84-22.73-42.7ZM1589,511.93c20.33,0,30.32,15.16,30.32,60.28l-68.55,5.17c1.37-38.57,13.08-65.45,38.23-65.45m69.93,127.46c-10.33,9-30,19-52,19-33.76,0-55.81-25.15-56.49-72v-2.41h106.78V570.5c0-48.58-28.93-67.52-65.46-67.52-44.77,0-83.35,39.26-83.35,96.45,0,52.36,31.68,87.5,78.54,87.5,41,0,63.39-29.29,72.68-45.47Zm-190.5-77.85c0-43.75-23.07-58.56-50-58.56-24.8,0-50,17.21-60.28,27.55V427.88h-1.39c-18.25,6.2-44.09,13.78-67.86,15.5v1.39c23.09,7.9,26.54,14.46,26.54,44.77V638c0,27.22-3.79,35.82-22.75,43.4v1.39h88.2v-1.39c-19-7.24-22.74-15.5-22.74-43.4V534.32c9-4.48,22.74-9.29,35.14-9.29,19.28,0,33.76,11,33.76,36.17V638c0,27.22-3.79,35.82-22.75,43.4v1.39h86.82v-1.39c-20-7.58-22.74-16.18-22.74-48.22ZM1239,685.55c24.47,0,40.66-14.81,49.61-24.46l-1-1.72c-7.58,2.75-16.54,4.81-23.77,4.81-17.57,0-28.24-10-28.24-30.31V522.26h44.09V507.11h-44.09V463h-2.07c-17.23,25.48-33.42,41-64.77,56.83v2.41h24.81V632.85c0,39.26,16.88,52.7,45.46,52.7m-175.32-7.23c-33.76,0-45.14-42.38-45.14-83.71,0-45.81,14.83-83,45.14-83,30,0,44.77,37.21,44.77,83,0,41.33-11.37,83.71-44.77,83.71m0,8.61c50.29,0,90.59-40.3,90.59-92.32,0-54.09-42-91.63-90.59-91.63-48.93,0-90.61,37.54-90.61,91.63,0,52,40,92.32,90.61,92.32m-218.41-9c-12.06,0-23.07-4.81-30-8.6V533c6.55-4.13,18.61-10,32.39-10C877.27,523,901,548.8,901,594.61c0,53-25.48,83.35-55.8,83.35m-3.1,79.92v-1.36c-23.77-8.27-26.87-15.85-26.87-46.86v-24.8a242.48,242.48,0,0,0,28.26,2.07c40,0,101.26-28.24,101.26-99.21,0-51.34-29.63-84.74-72-84.74-26.52,0-49.61,17.21-57.53,25.48V503H813.9C796,508.84,773.24,515,746.38,517.44v1.39c22.73,7.92,26.18,13.08,26.18,48.91V713.45c0,26.88-3.45,35.49-22.39,43.07v1.36ZM603.41,471.63,643,583.92H564.84Zm33.08-27.9H600.32l-53.4,145.71c-27.56,76.13-35.82,85.43-57.19,92v1.39h78.9v-1.39c-36.51-7.24-26.18-33.76-8.27-85.09h87.16l.34,1.38c17.22,49.61,30.32,76.47-3.79,83.71v1.39h97.49v-1.39c-18.61-6.19-25.49-15.5-50.65-85.77Z" transform="translate(-19.5 -14.05)"/></svg>